<mxfile host="app.diagrams.net" agent="Mozilla/5.0 (iPad; CPU OS 18_4_1 like Mac OS X) AppleWebKit/605.1.15 (KHTML, like Gecko) CriOS/136.0.7103.56 Mobile/15E148 Safari/604.1" version="27.0.2">
  <diagram name="Página-1" id="UX4U70JEBB-l9bFGmD4Q">
    <mxGraphModel dx="1301" dy="1129" grid="0" gridSize="10" guides="1" tooltips="1" connect="1" arrows="1" fold="1" page="1" pageScale="1" pageWidth="827" pageHeight="1169" math="0" shadow="0">
      <root>
        <mxCell id="0" />
        <mxCell id="1" parent="0" />
        <mxCell id="qDIlvjsj-8br28gw9U0e-1" value="&lt;font style=&quot;font-size: 17px;&quot;&gt;Ofertas&lt;/font&gt;" style="swimlane;whiteSpace=wrap;html=1;flipH=0;flipV=0;fillColor=#0050ef;fontColor=#ffffff;strokeColor=#001DBC;swimlaneLine=1;rounded=1;swimlaneFillColor=default;" vertex="1" parent="1">
          <mxGeometry x="330" y="415" width="160" height="340" as="geometry" />
        </mxCell>
        <mxCell id="qDIlvjsj-8br28gw9U0e-15" value="Id_URL&lt;div&gt;Fecha&lt;/div&gt;&lt;div&gt;Id_empresa&lt;/div&gt;&lt;div&gt;Función&lt;/div&gt;&lt;div&gt;Salario_min&lt;/div&gt;&lt;div&gt;Salario_max&lt;/div&gt;&lt;div&gt;Estudios&lt;/div&gt;&lt;div&gt;Experiencia&lt;/div&gt;&lt;div&gt;Id_ubicación&lt;/div&gt;&lt;div&gt;Id_modalidad&lt;/div&gt;&lt;div&gt;Id_jornada&lt;/div&gt;&lt;div&gt;Id_contrato&lt;/div&gt;&lt;div&gt;Vacaciones&lt;/div&gt;&lt;div&gt;Id_portal_empleo&lt;/div&gt;&lt;div&gt;Descripción&lt;/div&gt;" style="text;html=1;align=center;verticalAlign=middle;resizable=0;points=[];autosize=1;strokeColor=none;fillColor=none;fontSize=16;imageWidth=24;" vertex="1" parent="qDIlvjsj-8br28gw9U0e-1">
          <mxGeometry x="5" y="30" width="150" height="300" as="geometry" />
        </mxCell>
        <mxCell id="qDIlvjsj-8br28gw9U0e-2" value="&lt;font style=&quot;font-size: 17px;&quot;&gt;Idiomas&lt;/font&gt;" style="swimlane;whiteSpace=wrap;html=1;rotation=0;direction=east;fillColor=#0050ef;fontColor=#ffffff;strokeColor=#001DBC;labelBackgroundColor=none;rounded=1;swimlaneFillColor=default;" vertex="1" parent="1">
          <mxGeometry x="377" y="42" width="166" height="75" as="geometry" />
        </mxCell>
        <mxCell id="qDIlvjsj-8br28gw9U0e-49" value="Id_idiomas&lt;div&gt;Idiomas&lt;/div&gt;" style="text;html=1;align=center;verticalAlign=middle;resizable=0;points=[];autosize=1;strokeColor=none;fillColor=none;fontSize=16;" vertex="1" parent="qDIlvjsj-8br28gw9U0e-2">
          <mxGeometry x="33" y="25" width="100" height="50" as="geometry" />
        </mxCell>
        <mxCell id="qDIlvjsj-8br28gw9U0e-34" value="&lt;font style=&quot;font-size: 17px;&quot;&gt;Oferta idiomas&lt;/font&gt;" style="swimlane;whiteSpace=wrap;html=1;rotation=0;direction=east;fillColor=#0050ef;fontColor=#ffffff;strokeColor=#001DBC;startSize=23;swimlaneFillColor=default;rounded=1;" vertex="1" parent="1">
          <mxGeometry x="340" y="207.5" width="140" height="110" as="geometry" />
        </mxCell>
        <mxCell id="qDIlvjsj-8br28gw9U0e-47" value="Id_URL&lt;div&gt;Id_idiomas&lt;br&gt;&lt;/div&gt;" style="text;html=1;align=center;verticalAlign=middle;resizable=0;points=[];autosize=1;strokeColor=none;fillColor=default;fontSize=16;spacing=10;rounded=1;" vertex="1" parent="qDIlvjsj-8br28gw9U0e-34">
          <mxGeometry x="10" y="30" width="120" height="70" as="geometry" />
        </mxCell>
        <mxCell id="qDIlvjsj-8br28gw9U0e-35" value="&lt;font style=&quot;font-size: 17px;&quot;&gt;Tecnologías aptitudes&lt;/font&gt;" style="swimlane;whiteSpace=wrap;html=1;rotation=0;direction=east;fillColor=#0050ef;fontColor=#ffffff;strokeColor=#001DBC;rounded=1;swimlaneFillColor=default;" vertex="1" parent="1">
          <mxGeometry x="66" y="207.5" width="200" height="89" as="geometry" />
        </mxCell>
        <mxCell id="qDIlvjsj-8br28gw9U0e-51" value="Id_tecnologías&lt;div&gt;Tecnologías_aptitudes&lt;/div&gt;" style="text;html=1;align=center;verticalAlign=middle;resizable=0;points=[];autosize=1;strokeColor=none;fillColor=none;fontSize=16;" vertex="1" parent="qDIlvjsj-8br28gw9U0e-35">
          <mxGeometry x="14" y="29" width="180" height="50" as="geometry" />
        </mxCell>
        <mxCell id="qDIlvjsj-8br28gw9U0e-36" value="&lt;font style=&quot;font-size: 17px;&quot;&gt;Oferta tecnología&lt;/font&gt;" style="swimlane;whiteSpace=wrap;html=1;rotation=0;direction=east;fillColor=#0050ef;fontColor=#ffffff;strokeColor=#001DBC;startSize=23;rounded=1;swimlaneFillColor=default;" vertex="1" parent="1">
          <mxGeometry x="93" y="373" width="160" height="90" as="geometry" />
        </mxCell>
        <mxCell id="qDIlvjsj-8br28gw9U0e-53" value="Id_URL&lt;div&gt;Id_ tecnologías&lt;/div&gt;" style="text;html=1;align=center;verticalAlign=middle;resizable=0;points=[];autosize=1;strokeColor=none;fillColor=none;fontSize=16;" vertex="1" parent="qDIlvjsj-8br28gw9U0e-36">
          <mxGeometry x="15" y="31" width="130" height="50" as="geometry" />
        </mxCell>
        <mxCell id="qDIlvjsj-8br28gw9U0e-38" value="&lt;font style=&quot;font-size: 17px;&quot;&gt;Oferta skills&lt;/font&gt;" style="swimlane;whiteSpace=wrap;html=1;rotation=0;direction=east;fillColor=#0050ef;fontColor=#ffffff;strokeColor=#001DBC;rounded=1;startSize=23;swimlaneFillColor=default;" vertex="1" parent="1">
          <mxGeometry x="344" y="842" width="140" height="92" as="geometry" />
        </mxCell>
        <mxCell id="qDIlvjsj-8br28gw9U0e-72" value="Id_URL&lt;div&gt;Id_skills&lt;/div&gt;" style="text;html=1;align=center;verticalAlign=middle;resizable=0;points=[];autosize=1;strokeColor=none;fillColor=none;fontSize=16;" vertex="1" parent="qDIlvjsj-8br28gw9U0e-38">
          <mxGeometry x="34" y="30" width="80" height="50" as="geometry" />
        </mxCell>
        <mxCell id="qDIlvjsj-8br28gw9U0e-40" value="&lt;font style=&quot;font-size: 17px;&quot;&gt;Oferta beneficios&lt;/font&gt;" style="swimlane;whiteSpace=wrap;html=1;rotation=0;direction=east;fillColor=#0050ef;fontColor=#ffffff;strokeColor=#001DBC;rounded=1;swimlaneFillColor=default;" vertex="1" parent="1">
          <mxGeometry x="106" y="662" width="160" height="80" as="geometry" />
        </mxCell>
        <mxCell id="qDIlvjsj-8br28gw9U0e-70" value="Id_URL&lt;div&gt;Id_beneficios&lt;/div&gt;" style="text;html=1;align=center;verticalAlign=middle;resizable=0;points=[];autosize=1;strokeColor=none;fillColor=none;fontSize=16;" vertex="1" parent="qDIlvjsj-8br28gw9U0e-40">
          <mxGeometry x="20" y="25" width="120" height="50" as="geometry" />
        </mxCell>
        <mxCell id="qDIlvjsj-8br28gw9U0e-41" value="&lt;font style=&quot;font-size: 17px;&quot;&gt;Beneficios&lt;/font&gt;" style="swimlane;whiteSpace=wrap;html=1;rotation=0;direction=east;fillColor=#0050ef;fontColor=#ffffff;strokeColor=#001DBC;rounded=1;swimlaneFillColor=default;" vertex="1" parent="1">
          <mxGeometry x="70" y="510" width="160" height="90" as="geometry" />
        </mxCell>
        <mxCell id="qDIlvjsj-8br28gw9U0e-68" value="Id_beneficios&lt;div&gt;Beneficios&lt;/div&gt;" style="text;html=1;align=center;verticalAlign=middle;resizable=0;points=[];autosize=1;strokeColor=none;fillColor=none;fontSize=16;" vertex="1" parent="qDIlvjsj-8br28gw9U0e-41">
          <mxGeometry x="20" y="30" width="120" height="50" as="geometry" />
        </mxCell>
        <mxCell id="qDIlvjsj-8br28gw9U0e-37" value="&lt;font style=&quot;font-size: 17px;&quot;&gt;Portal empleo&lt;/font&gt;" style="swimlane;whiteSpace=wrap;html=1;rotation=0;direction=east;fillColor=#0050ef;fontColor=#ffffff;strokeColor=#001DBC;rounded=1;swimlaneFillColor=default;" vertex="1" parent="1">
          <mxGeometry x="579" y="207" width="160" height="90" as="geometry" />
        </mxCell>
        <mxCell id="qDIlvjsj-8br28gw9U0e-55" value="Id_portal_empleo&lt;div&gt;Portal_empleo&lt;/div&gt;" style="text;html=1;align=center;verticalAlign=middle;resizable=0;points=[];autosize=1;strokeColor=none;fillColor=none;fontSize=16;" vertex="1" parent="qDIlvjsj-8br28gw9U0e-37">
          <mxGeometry x="5" y="31" width="150" height="50" as="geometry" />
        </mxCell>
        <mxCell id="qDIlvjsj-8br28gw9U0e-42" value="&lt;font style=&quot;font-size: 17px;&quot;&gt;Modalidad&lt;/font&gt;" style="swimlane;whiteSpace=wrap;html=1;rotation=0;direction=east;fillColor=#0050ef;fontColor=#ffffff;strokeColor=#001DBC;rounded=1;swimlaneFillColor=default;" vertex="1" parent="1">
          <mxGeometry x="601" y="379" width="160" height="84" as="geometry" />
        </mxCell>
        <mxCell id="qDIlvjsj-8br28gw9U0e-57" value="Id_modalidad&lt;div&gt;Modalidad&lt;/div&gt;" style="text;html=1;align=center;verticalAlign=middle;resizable=0;points=[];autosize=1;strokeColor=none;fillColor=none;fontSize=16;" vertex="1" parent="qDIlvjsj-8br28gw9U0e-42">
          <mxGeometry x="20" y="25" width="120" height="50" as="geometry" />
        </mxCell>
        <mxCell id="qDIlvjsj-8br28gw9U0e-43" value="&lt;font style=&quot;font-size: 17px;&quot;&gt;Contrato&lt;/font&gt;" style="swimlane;whiteSpace=wrap;html=1;rotation=0;direction=east;fillColor=#0050ef;fontColor=#ffffff;strokeColor=#001DBC;rounded=1;gradientColor=none;swimlaneFillColor=default;" vertex="1" parent="1">
          <mxGeometry x="622" y="510" width="160" height="80" as="geometry" />
        </mxCell>
        <mxCell id="qDIlvjsj-8br28gw9U0e-60" value="Id_contrato&lt;div&gt;Contrato&lt;/div&gt;" style="text;html=1;align=center;verticalAlign=middle;resizable=0;points=[];autosize=1;strokeColor=none;fillColor=none;fontSize=16;rotation=0;" vertex="1" parent="qDIlvjsj-8br28gw9U0e-43">
          <mxGeometry x="30" y="24" width="100" height="50" as="geometry" />
        </mxCell>
        <mxCell id="qDIlvjsj-8br28gw9U0e-101" style="edgeStyle=none;curved=1;rounded=0;orthogonalLoop=1;jettySize=auto;html=1;fontSize=12;startSize=8;endSize=8;startArrow=ERzeroToMany;startFill=0;exitX=0;exitY=0.5;exitDx=0;exitDy=0;endArrow=ERzeroToMany;endFill=0;" edge="1" parent="1" source="qDIlvjsj-8br28gw9U0e-44">
          <mxGeometry relative="1" as="geometry">
            <mxPoint x="488" y="620" as="targetPoint" />
            <mxPoint x="579" y="710" as="sourcePoint" />
            <Array as="points">
              <mxPoint x="547" y="652" />
            </Array>
          </mxGeometry>
        </mxCell>
        <mxCell id="qDIlvjsj-8br28gw9U0e-44" value="&lt;font style=&quot;font-size: 17px;&quot;&gt;Ubicación&lt;/font&gt;" style="swimlane;whiteSpace=wrap;html=1;rotation=0;direction=east;fillColor=#0050ef;fontColor=#ffffff;strokeColor=#001DBC;rounded=1;swimlaneFillColor=default;" vertex="1" parent="1">
          <mxGeometry x="584" y="657" width="163" height="94" as="geometry" />
        </mxCell>
        <mxCell id="qDIlvjsj-8br28gw9U0e-61" value="Id_ubicación&lt;div&gt;Ubicación&lt;/div&gt;" style="text;html=1;align=center;verticalAlign=middle;resizable=0;points=[];autosize=1;strokeColor=none;fillColor=none;fontSize=16;" vertex="1" parent="qDIlvjsj-8br28gw9U0e-44">
          <mxGeometry x="25" y="30" width="110" height="50" as="geometry" />
        </mxCell>
        <mxCell id="qDIlvjsj-8br28gw9U0e-45" value="&lt;font style=&quot;font-size: 17px;&quot;&gt;Empresa&lt;/font&gt;" style="swimlane;whiteSpace=wrap;html=1;rotation=0;direction=east;fillColor=#0050ef;fontColor=#ffffff;strokeColor=#001DBC;rounded=1;swimlaneFillColor=default;" vertex="1" parent="1">
          <mxGeometry x="121" y="818" width="160" height="90" as="geometry" />
        </mxCell>
        <mxCell id="qDIlvjsj-8br28gw9U0e-63" value="Id_empresa&lt;div&gt;Empresa&lt;/div&gt;" style="text;html=1;align=center;verticalAlign=middle;resizable=0;points=[];autosize=1;strokeColor=none;fillColor=none;fontSize=16;" vertex="1" parent="qDIlvjsj-8br28gw9U0e-45">
          <mxGeometry x="25" y="30" width="110" height="50" as="geometry" />
        </mxCell>
        <mxCell id="qDIlvjsj-8br28gw9U0e-46" value="&lt;font style=&quot;font-size: 17px;&quot;&gt;Jornada&lt;/font&gt;" style="swimlane;whiteSpace=wrap;html=1;rotation=0;direction=east;fillColor=#0050ef;fontColor=#ffffff;strokeColor=#001DBC;rounded=1;swimlaneFillColor=default;" vertex="1" parent="1">
          <mxGeometry x="563" y="818" width="160" height="90" as="geometry" />
        </mxCell>
        <mxCell id="qDIlvjsj-8br28gw9U0e-65" value="Id_jornada&lt;div&gt;Jornada&lt;/div&gt;" style="text;html=1;align=center;verticalAlign=middle;resizable=0;points=[];autosize=1;strokeColor=none;fillColor=none;fontSize=16;rotation=0;" vertex="1" parent="qDIlvjsj-8br28gw9U0e-46">
          <mxGeometry x="30" y="30" width="100" height="50" as="geometry" />
        </mxCell>
        <mxCell id="qDIlvjsj-8br28gw9U0e-39" value="&lt;font style=&quot;font-size: 17px;&quot;&gt;Skills&lt;/font&gt;" style="swimlane;whiteSpace=wrap;html=1;rotation=0;direction=east;fillColor=#0050ef;fontColor=#ffffff;strokeColor=#001DBC;rounded=1;swimlaneFillColor=default;" vertex="1" parent="1">
          <mxGeometry x="292" y="1001" width="130" height="80" as="geometry" />
        </mxCell>
        <mxCell id="qDIlvjsj-8br28gw9U0e-74" value="Id_skills&lt;div&gt;Skills&lt;/div&gt;" style="text;html=1;align=center;verticalAlign=middle;resizable=0;points=[];autosize=1;strokeColor=none;fillColor=none;fontSize=16;rotation=0;" vertex="1" parent="qDIlvjsj-8br28gw9U0e-39">
          <mxGeometry x="26" y="25" width="80" height="50" as="geometry" />
        </mxCell>
        <mxCell id="qDIlvjsj-8br28gw9U0e-88" value="" style="edgeStyle=elbowEdgeStyle;fontSize=12;html=1;endArrow=ERzeroToMany;endFill=1;startArrow=ERzeroToMany;rounded=0;startSize=8;endSize=8;entryX=0;entryY=0.5;entryDx=0;entryDy=0;exitX=0;exitY=0.5;exitDx=0;exitDy=0;curved=1;" edge="1" parent="1" source="qDIlvjsj-8br28gw9U0e-36" target="qDIlvjsj-8br28gw9U0e-35">
          <mxGeometry width="100" height="100" relative="1" as="geometry">
            <mxPoint x="431" y="621" as="sourcePoint" />
            <mxPoint x="531" y="521" as="targetPoint" />
            <Array as="points">
              <mxPoint x="45" y="355" />
            </Array>
          </mxGeometry>
        </mxCell>
        <mxCell id="qDIlvjsj-8br28gw9U0e-91" value="" style="edgeStyle=elbowEdgeStyle;fontSize=12;html=1;endArrow=ERzeroToMany;endFill=1;startArrow=ERzeroToMany;rounded=0;startSize=8;endSize=8;curved=1;entryX=0;entryY=0.5;entryDx=0;entryDy=0;exitX=0;exitY=0.75;exitDx=0;exitDy=0;" edge="1" parent="1" source="qDIlvjsj-8br28gw9U0e-40" target="qDIlvjsj-8br28gw9U0e-41">
          <mxGeometry width="100" height="100" relative="1" as="geometry">
            <mxPoint x="87" y="725" as="sourcePoint" />
            <mxPoint x="46" y="533" as="targetPoint" />
            <Array as="points">
              <mxPoint x="34" y="644" />
            </Array>
          </mxGeometry>
        </mxCell>
        <mxCell id="qDIlvjsj-8br28gw9U0e-93" value="" style="edgeStyle=elbowEdgeStyle;fontSize=12;html=1;endArrow=ERzeroToMany;endFill=1;startArrow=ERzeroToMany;rounded=0;startSize=8;endSize=8;entryX=0;entryY=0.5;entryDx=0;entryDy=0;exitX=0;exitY=0.75;exitDx=0;exitDy=0;curved=1;" edge="1" parent="1" source="qDIlvjsj-8br28gw9U0e-34" target="qDIlvjsj-8br28gw9U0e-2">
          <mxGeometry width="100" height="100" relative="1" as="geometry">
            <mxPoint x="340" y="260" as="sourcePoint" />
            <mxPoint x="313" y="94" as="targetPoint" />
            <Array as="points">
              <mxPoint x="292" y="197" />
            </Array>
          </mxGeometry>
        </mxCell>
        <mxCell id="qDIlvjsj-8br28gw9U0e-94" value="" style="edgeStyle=elbowEdgeStyle;fontSize=12;html=1;endArrow=ERzeroToMany;endFill=1;startArrow=ERzeroToMany;rounded=0;startSize=8;endSize=8;curved=1;entryX=1;entryY=0.75;entryDx=0;entryDy=0;exitX=1;exitY=0.5;exitDx=0;exitDy=0;" edge="1" parent="1" source="qDIlvjsj-8br28gw9U0e-39" target="qDIlvjsj-8br28gw9U0e-38">
          <mxGeometry width="100" height="100" relative="1" as="geometry">
            <mxPoint x="560" y="1091" as="sourcePoint" />
            <mxPoint x="524" y="924" as="targetPoint" />
            <Array as="points">
              <mxPoint x="517" y="982" />
            </Array>
          </mxGeometry>
        </mxCell>
        <mxCell id="qDIlvjsj-8br28gw9U0e-95" value="" style="edgeStyle=elbowEdgeStyle;fontSize=12;html=1;endArrow=ERzeroToMany;endFill=1;startArrow=ERzeroToMany;rounded=0;startSize=8;endSize=8;curved=1;exitX=0;exitY=0.5;exitDx=0;exitDy=0;" edge="1" parent="1" source="qDIlvjsj-8br28gw9U0e-46">
          <mxGeometry width="100" height="100" relative="1" as="geometry">
            <mxPoint x="510" y="823" as="sourcePoint" />
            <mxPoint x="490" y="670" as="targetPoint" />
            <Array as="points" />
          </mxGeometry>
        </mxCell>
        <mxCell id="qDIlvjsj-8br28gw9U0e-97" value="" style="edgeStyle=elbowEdgeStyle;fontSize=12;html=1;endArrow=ERzeroToMany;endFill=1;startArrow=ERzeroToMany;rounded=0;startSize=8;endSize=8;curved=0;entryX=0.5;entryY=1;entryDx=0;entryDy=0;exitX=0.5;exitY=0;exitDx=0;exitDy=0;" edge="1" parent="1" source="qDIlvjsj-8br28gw9U0e-1" target="qDIlvjsj-8br28gw9U0e-34">
          <mxGeometry width="100" height="100" relative="1" as="geometry">
            <mxPoint x="360" y="528" as="sourcePoint" />
            <mxPoint x="324" y="361" as="targetPoint" />
            <Array as="points" />
          </mxGeometry>
        </mxCell>
        <mxCell id="qDIlvjsj-8br28gw9U0e-102" style="edgeStyle=none;curved=0;rounded=1;orthogonalLoop=1;jettySize=auto;html=1;fontSize=12;startSize=8;endSize=8;startArrow=ERzeroToMany;startFill=0;exitX=0;exitY=0.5;exitDx=0;exitDy=0;endArrow=ERzeroToMany;endFill=0;entryX=1;entryY=0.5;entryDx=0;entryDy=0;" edge="1" parent="1" source="qDIlvjsj-8br28gw9U0e-43" target="qDIlvjsj-8br28gw9U0e-1">
          <mxGeometry relative="1" as="geometry">
            <mxPoint x="490" y="557" as="targetPoint" />
            <mxPoint x="586" y="641" as="sourcePoint" />
            <Array as="points">
              <mxPoint x="525" y="579" />
            </Array>
          </mxGeometry>
        </mxCell>
        <mxCell id="qDIlvjsj-8br28gw9U0e-103" style="edgeStyle=none;curved=1;rounded=0;orthogonalLoop=1;jettySize=auto;html=1;fontSize=12;startSize=8;endSize=8;startArrow=ERzeroToMany;startFill=0;exitX=0;exitY=0.5;exitDx=0;exitDy=0;endArrow=ERzeroToMany;endFill=0;" edge="1" parent="1" source="qDIlvjsj-8br28gw9U0e-42">
          <mxGeometry relative="1" as="geometry">
            <mxPoint x="488" y="545" as="targetPoint" />
            <mxPoint x="622" y="452" as="sourcePoint" />
            <Array as="points">
              <mxPoint x="552" y="504" />
            </Array>
          </mxGeometry>
        </mxCell>
        <mxCell id="qDIlvjsj-8br28gw9U0e-104" style="edgeStyle=none;curved=1;rounded=0;orthogonalLoop=1;jettySize=auto;html=1;fontSize=12;startSize=8;endSize=8;startArrow=ERzeroToMany;startFill=0;exitX=0;exitY=0.5;exitDx=0;exitDy=0;endArrow=ERzeroToMany;endFill=0;entryX=1;entryY=0.25;entryDx=0;entryDy=0;" edge="1" parent="1" source="qDIlvjsj-8br28gw9U0e-37" target="qDIlvjsj-8br28gw9U0e-1">
          <mxGeometry relative="1" as="geometry">
            <mxPoint x="448" y="403" as="targetPoint" />
            <mxPoint x="559" y="342" as="sourcePoint" />
            <Array as="points">
              <mxPoint x="534" y="403" />
            </Array>
          </mxGeometry>
        </mxCell>
        <mxCell id="qDIlvjsj-8br28gw9U0e-105" style="edgeStyle=none;curved=1;rounded=0;orthogonalLoop=1;jettySize=auto;html=1;fontSize=12;startSize=8;endSize=8;startArrow=ERzeroToMany;startFill=0;endArrow=ERzeroToMany;endFill=0;entryX=1;entryY=0.5;entryDx=0;entryDy=0;" edge="1" parent="1" source="qDIlvjsj-8br28gw9U0e-15" target="qDIlvjsj-8br28gw9U0e-45">
          <mxGeometry relative="1" as="geometry">
            <mxPoint x="244" y="804" as="targetPoint" />
            <mxPoint x="324" y="686" as="sourcePoint" />
            <Array as="points">
              <mxPoint x="303" y="699" />
              <mxPoint x="303" y="767" />
              <mxPoint x="311" y="872" />
            </Array>
          </mxGeometry>
        </mxCell>
        <mxCell id="qDIlvjsj-8br28gw9U0e-107" style="edgeStyle=none;curved=1;rounded=0;orthogonalLoop=1;jettySize=auto;html=1;fontSize=12;startSize=8;endSize=8;startArrow=ERzeroToMany;startFill=0;endArrow=ERzeroToMany;endFill=0;entryX=1;entryY=0.5;entryDx=0;entryDy=0;exitX=0;exitY=0.5;exitDx=0;exitDy=0;" edge="1" parent="1" source="qDIlvjsj-8br28gw9U0e-1" target="qDIlvjsj-8br28gw9U0e-40">
          <mxGeometry relative="1" as="geometry">
            <mxPoint x="199" y="615" as="targetPoint" />
            <mxPoint x="266" y="575" as="sourcePoint" />
            <Array as="points">
              <mxPoint x="291" y="630" />
              <mxPoint x="291" y="670" />
            </Array>
          </mxGeometry>
        </mxCell>
        <mxCell id="qDIlvjsj-8br28gw9U0e-109" value="" style="edgeStyle=elbowEdgeStyle;fontSize=12;html=1;endArrow=ERzeroToMany;endFill=1;startArrow=ERzeroToMany;rounded=0;startSize=8;endSize=8;curved=0;exitX=0.5;exitY=0;exitDx=0;exitDy=0;" edge="1" parent="1" target="qDIlvjsj-8br28gw9U0e-15">
          <mxGeometry width="100" height="100" relative="1" as="geometry">
            <mxPoint x="409.41" y="840" as="sourcePoint" />
            <mxPoint x="409.41" y="742" as="targetPoint" />
            <Array as="points">
              <mxPoint x="410" y="870" />
            </Array>
          </mxGeometry>
        </mxCell>
        <mxCell id="qDIlvjsj-8br28gw9U0e-110" style="edgeStyle=none;curved=1;rounded=0;orthogonalLoop=1;jettySize=auto;html=1;fontSize=12;startSize=8;endSize=8;startArrow=ERzeroToMany;startFill=0;exitX=0;exitY=0.25;exitDx=0;exitDy=0;endArrow=ERzeroToMany;endFill=0;entryX=0.75;entryY=1;entryDx=0;entryDy=0;" edge="1" parent="1" source="qDIlvjsj-8br28gw9U0e-1" target="qDIlvjsj-8br28gw9U0e-36">
          <mxGeometry relative="1" as="geometry">
            <mxPoint x="217" y="490" as="targetPoint" />
            <mxPoint x="330" y="366" as="sourcePoint" />
            <Array as="points">
              <mxPoint x="265" y="516" />
            </Array>
          </mxGeometry>
        </mxCell>
      </root>
    </mxGraphModel>
  </diagram>
</mxfile>
